<?xml version="1.0" encoding="utf-8"?>
<!-- Generator: Adobe Illustrator 16.0.0, SVG Export Plug-In . SVG Version: 6.00 Build 0)  -->
<!DOCTYPE svg PUBLIC "-//W3C//DTD SVG 1.1//EN" "http://www.w3.org/Graphics/SVG/1.1/DTD/svg11.dtd">
<svg version="1.1" id="Layer_1" xmlns="http://www.w3.org/2000/svg" xmlns:xlink="http://www.w3.org/1999/xlink" x="0px" y="0px"
	 width="57.652px" height="49.266px" viewBox="0 0 57.652 49.266" enable-background="new 0 0 57.652 49.266" xml:space="preserve">
<g>
	<g>
		<path fill="#206195" d="M44.087,34.061c-0.035,0.363-0.082,0.729-0.124,1.085c-0.02,0.149-0.039,0.3-0.055,0.45
			c-0.074,0.605-0.276,1.043-0.625,1.34c-0.128,0.11-0.278,0.201-0.449,0.273c-0.686,0.283-1.36,0.168-1.955-0.336
			c-0.907-0.771-1.045-1.931-0.333-2.818c0.073-0.093,0.165-0.186,0.288-0.293c0.084-0.067,0.166-0.135,0.248-0.2
			c0.083-0.064,0.169-0.135,0.254-0.203l0.018-0.018c0.004-0.004,0.016-0.011,0.025-0.016c0.016-0.008,0.033-0.017,0.048-0.03
			c0.184-0.13,0.282-0.294,0.286-0.47c0.001-0.121-0.141-0.285-0.073-0.398c0.063,0.016,0.109,0.062,0.167,0.087
			c0.146,0.063,0.315,0.092,0.475,0.07c0.101-0.014,0.197-0.046,0.277-0.109c0.024-0.019,0.048-0.037,0.078-0.044
			c0.125-0.024,0.076,0.172,0.088,0.236c0.033,0.207-0.029,0.391-0.21,0.584c-0.038,0.044-0.076,0.086-0.115,0.128
			c-0.333,0.358-0.681,0.732-0.866,1.222c-0.115,0.303-0.205,0.659,0,1.016c0.18,0.311,0.466,0.454,0.808,0.41
			c0.356-0.045,0.624-0.264,0.77-0.632c0.04-0.105,0.081-0.209,0.121-0.314c0.107-0.278,0.216-0.562,0.341-0.833
			c0.05-0.109,0.137-0.225,0.248-0.319c0.017-0.013,0.032-0.023,0.049-0.037c0.039-0.031,0.146-0.035,0.188-0.019
			C44.074,33.9,44.093,33.989,44.087,34.061z"/>
		<path fill="#206195" d="M45.089,29.112c-0.032-0.119-0.086-0.229-0.149-0.334c-0.045-0.069-0.076-0.115-0.128-0.139
			c-0.028-0.017-0.063-0.023-0.111-0.023h-5.02c-0.08,0-0.201-0.021-0.263,0.027c-0.023,0.024-0.045,0.062-0.063,0.087
			c-0.063,0.097-0.117,0.198-0.155,0.303c-0.113,0.312-0.065,0.637,0.153,0.887c0.027,0.033,0.058,0.063,0.089,0.093
			c0.074,0.073,0.146,0.146,0.22,0.222c0.176,0.178,0.35,0.356,0.525,0.532c0.208,0.212,0.419,0.426,0.629,0.637
			c0.179,0.18,0.358,0.361,0.537,0.543c0.126,0.129,0.246,0.278,0.416,0.352c0.198,0.085,0.423,0.097,0.629,0.039
			c0.233-0.068,0.391-0.27,0.558-0.436c0.192-0.194,0.384-0.389,0.575-0.584c0.217-0.218,0.432-0.435,0.647-0.655
			c0.166-0.168,0.332-0.335,0.499-0.504c0.048-0.05,0.097-0.099,0.144-0.146C45.078,29.775,45.183,29.448,45.089,29.112z
			 M40.734,30.65l-0.642-0.651l0.917-0.917h1.291L40.734,30.65z M41.968,31.902c-0.02-0.019-0.04-0.04-0.059-0.061
			c-0.026-0.028-0.052-0.054-0.075-0.079l-0.506-0.51l2.169-2.171h1.291L41.968,31.902z"/>
		<path fill="#206195" d="M48.607,14.628l-22.34-6.009V8.579h-0.141h-0.003l0,0h-8.551v0.002L17.57,8.579l-8.586,6.048l0.002,0.004
			v4.621h8.585v16.048l-2.059,2.192v5.4h12.809v-5.429l-2.054-2.164V9.787l17.991,4.84H28.163v4.626h11.712v8.756h0.969v-8.756
			h2.471v8.756h0.969v-8.756h4.386v-4.454v-0.155v-0.018H48.607z M17.571,14.628h-6.627l6.627-4.667V14.628z M19.664,12.18
			l3.44,2.071l-3.44,1.826V12.18z M19.664,18.231l3.44,2.071l-3.44,1.825V18.231z M19.664,24.279l3.44,2.071l-3.44,1.825V24.279z
			 M19.664,29.998l3.44,2.069l-3.44,1.825V29.998z M24.172,35.301h-4.508v-0.064l4.364-2.316l0.048-0.027
			c0.036-0.024,0.063-0.055,0.095-0.079V35.301z M24.172,31.347c-0.017-0.014-0.029-0.032-0.048-0.046l-3.664-2.207l3.568-1.893
			l0.048-0.03c0.037-0.022,0.064-0.054,0.095-0.08V31.347z M24.172,25.628c-0.017-0.015-0.029-0.031-0.048-0.045l-3.953-2.384
			l3.857-2.045l0.05-0.031c0.035-0.022,0.063-0.054,0.093-0.078V25.628L24.172,25.628z M24.172,19.578
			c-0.017-0.015-0.029-0.033-0.048-0.044l-3.953-2.384l3.857-2.047l0.05-0.029c0.035-0.023,0.063-0.053,0.093-0.081V19.578
			L24.172,19.578z M24.172,13.53c-0.017-0.014-0.029-0.031-0.048-0.044l-4.46-2.688v-0.083h4.508V13.53z"/>
	</g>
</g>
</svg>
