<?xml version="1.0" encoding="utf-8"?>
<!-- Generator: Adobe Illustrator 16.0.0, SVG Export Plug-In . SVG Version: 6.00 Build 0)  -->
<!DOCTYPE svg PUBLIC "-//W3C//DTD SVG 1.1//EN" "http://www.w3.org/Graphics/SVG/1.1/DTD/svg11.dtd">
<svg version="1.1" id="Layer_1" xmlns="http://www.w3.org/2000/svg" xmlns:xlink="http://www.w3.org/1999/xlink" x="0px" y="0px"
	 width="57.652px" height="49.266px" viewBox="0 0 57.652 49.266" enable-background="new 0 0 57.652 49.266" xml:space="preserve">
<polygon fill="#206195" points="39.751,18.859 37.322,14.363 39.086,14.363 36.823,9.553 34.56,4.749 32.299,9.553 30.035,14.363 
	31.797,14.363 29.371,18.859 33.611,18.859 33.611,22.344 35.51,22.344 35.51,18.859 "/>
<polygon fill="#206195" points="25.371,19.927 23.726,16.881 24.92,16.881 23.387,13.621 21.852,10.366 20.32,13.621 18.788,16.881 
	19.982,16.881 18.337,19.927 21.211,19.927 21.211,22.288 22.497,22.288 22.497,19.927 "/>
<g>
	<path fill="#206195" d="M17.031,33.937c0,1.083-0.879,1.962-1.963,1.962l0,0c-1.087,0-1.966-0.879-1.966-1.962l0,0
		c0-1.084,0.879-1.963,1.966-1.963l0,0C16.152,31.974,17.031,32.853,17.031,33.937L17.031,33.937z"/>
	<path fill="#206195" d="M34.385,34.031c0,0.894-0.722,1.615-1.615,1.615l0,0c-0.891,0-1.615-0.722-1.615-1.615l0,0
		c0-0.891,0.725-1.615,1.615-1.615l0,0C33.664,32.416,34.385,33.141,34.385,34.031L34.385,34.031z"/>
	<path fill="#206195" d="M22.636,31.561c0,0.525-0.425,0.95-0.95,0.95l0,0c-0.523,0-0.95-0.425-0.95-0.95l0,0
		c0-0.525,0.427-0.95,0.95-0.95l0,0C22.212,30.611,22.636,31.035,22.636,31.561L22.636,31.561z"/>
	<path fill="#206195" d="M43.445,32.163c0,0.526-0.425,0.95-0.95,0.95l0,0c-0.522,0-0.95-0.424-0.95-0.95l0,0
		c0-0.525,0.428-0.949,0.95-0.949l0,0C43.02,31.214,43.445,31.638,43.445,32.163L43.445,32.163z"/>
	<path fill="#206195" d="M27.26,35.047c0,0.419-0.339,0.757-0.76,0.757l0,0c-0.418,0-0.757-0.338-0.757-0.757l0,0
		c0-0.422,0.339-0.761,0.757-0.761l0,0C26.921,34.286,27.26,34.625,27.26,35.047L27.26,35.047z"/>
	<path fill="#206195" d="M41.545,36.217c0,0.418-0.342,0.76-0.761,0.76l0,0c-0.421,0-0.76-0.342-0.76-0.76l0,0
		c0-0.419,0.339-0.761,0.76-0.761l0,0C41.203,35.456,41.545,35.798,41.545,36.217L41.545,36.217z"/>
</g>
<path fill="#206195" d="M45.03,37.482v5.829H11.014v-3.994c0,0,8.566-4.013,18.938-0.76C33.56,39.688,40.532,40.775,45.03,37.482z"
	/>
<path fill="#206195" d="M11.014,21.584v8.233c4.496-3.292,11.47-2.206,15.075-1.074c10.374,3.253,18.94-0.761,18.94-0.761v-6.398
	H11.014z M13.577,27.157c-0.611,0-1.107-0.496-1.107-1.107c0-0.612,0.496-1.107,1.107-1.107c0.615,0,1.111,0.495,1.111,1.107
	C14.688,26.661,14.192,27.157,13.577,27.157z M17.79,25.86c-0.822,0-1.487-0.664-1.487-1.487c0-0.825,0.665-1.49,1.487-1.49
	c0.823,0,1.488,0.665,1.488,1.49C19.278,25.196,18.613,25.86,17.79,25.86z M24.727,27.823c-0.422,0-0.76-0.338-0.76-0.757
	c0-0.422,0.338-0.76,0.76-0.76c0.418,0,0.76,0.338,0.76,0.76C25.487,27.485,25.145,27.823,24.727,27.823z M31.031,27.571
	c-0.823,0-1.491-0.665-1.491-1.488c0-0.825,0.668-1.49,1.491-1.49c0.818,0,1.487,0.665,1.487,1.49
	C32.518,26.906,31.849,27.571,31.031,27.571z M37.396,28.078c-0.422,0-0.76-0.342-0.76-0.761c0-0.418,0.338-0.76,0.76-0.76
	c0.419,0,0.761,0.342,0.761,0.76C38.157,27.737,37.815,28.078,37.396,28.078z M40.627,25.257c-0.614,0-1.11-0.496-1.11-1.107
	c0-0.611,0.496-1.107,1.11-1.107c0.612,0,1.107,0.496,1.107,1.107C41.734,24.761,41.239,25.257,40.627,25.257z"/>
</svg>
