<?xml version="1.0" encoding="utf-8"?>
<!-- Generator: Adobe Illustrator 16.0.0, SVG Export Plug-In . SVG Version: 6.00 Build 0)  -->
<!DOCTYPE svg PUBLIC "-//W3C//DTD SVG 1.1//EN" "http://www.w3.org/Graphics/SVG/1.1/DTD/svg11.dtd">
<svg version="1.1" id="Layer_1" xmlns="http://www.w3.org/2000/svg" xmlns:xlink="http://www.w3.org/1999/xlink" x="0px" y="0px"
	 width="57.652px" height="49.266px" viewBox="0 0 57.652 49.266" enable-background="new 0 0 57.652 49.266" xml:space="preserve">
<g>
	<path fill="#206195" d="M10.217,38.812v0.015c0.007,2.137,1.729,3.93,3.863,3.93c2.132,0,3.854-1.793,3.863-3.93v-0.015
		c0.144-2.574-2.972-4.837-3.863-7.375C13.189,33.975,10.072,36.238,10.217,38.812z"/>
	<path fill="#206195" d="M25.914,6.109v2.385v1V10.8h-2.308v3.753c-6.865,0.238-12.419,5.903-12.434,12.816h-0.028
		c-0.689,0-1.251,0.563-1.251,1.253s0.562,1.238,1.251,1.238h5.882c0.69,0,1.253-0.548,1.253-1.238s-0.563-1.253-1.253-1.253h-0.04
		c0.013-3.792,2.888-6.753,6.619-6.98v10.409h2.308v15.386h6.769V30.798h2.308V10.8h-2.308V9.494h7.843v24.843h3.385V9.494V7.418
		V6.109H25.914z"/>
</g>
</svg>
