<?xml version="1.0" encoding="utf-8"?>
<!-- Generator: Adobe Illustrator 16.0.0, SVG Export Plug-In . SVG Version: 6.00 Build 0)  -->
<!DOCTYPE svg PUBLIC "-//W3C//DTD SVG 1.1//EN" "http://www.w3.org/Graphics/SVG/1.1/DTD/svg11.dtd">
<svg version="1.1" id="Layer_1" xmlns="http://www.w3.org/2000/svg" xmlns:xlink="http://www.w3.org/1999/xlink" x="0px" y="0px"
	 width="57.652px" height="49.266px" viewBox="0 0 57.652 49.266" enable-background="new 0 0 57.652 49.266" xml:space="preserve">
<path fill="#206195" d="M16.583,6.708h-0.048c0,0.05,0.021,0.097,0.048,0.145C16.583,6.796,16.583,6.719,16.583,6.708z"/>
<g>
	<path fill="#206195" d="M16.615,6.91h0.135c0.927,0.83,5.858,1.469,11.864,1.469c5.748,0,10.505-0.482,11.714-1.376l0.146,0.001
		l0,0h0.005h0.134c0.056-0.065,0.071-0.183,0.071-0.25c0-0.121-0.087-0.24-0.249-0.357c0.123,0.099,0.189,0.202,0.189,0.305
		c0,0.005-0.008,0.016-0.012,0.022c-0.008-0.098-0.063-0.211-0.175-0.301C39.304,5.626,34.472,5,28.648,5
		c-6.663,0-12.034,0.743-12.034,1.702v0.199c-0.012-0.016-0.023-0.032-0.032-0.048c0,0.029,0,0.057,0,0.057H16.615z"/>
	<g>
		<path fill="#206195" d="M41.187,20.454c0.008-0.009,0.02-0.022,0.023-0.031l0.012-1.106c0.107-0.16,0.187-0.321,0.187-0.487
			c0-0.165-0.056-0.329-0.163-0.488c-0.003,0.006-0.008,0.012-0.011,0.018l0.131-11.45c-0.544,1.134-6.058,2.024-12.78,2.024
			c-6.307,0-11.551-0.783-12.621-1.815l0.111,11.249c-0.008-0.009-0.012-0.017-0.02-0.025c-0.107,0.159-0.159,0.323-0.159,0.488
			c0,0.168,0.08,0.332,0.187,0.494l0.012,1.104c0.004,0.008,0.016,0.019,0.02,0.026l0.091,10.624
			c-0.051,0.129-0.091,0.262-0.091,0.395c0,0.129,0.052,0.251,0.099,0.373l0.028,3.264c0.012,0.017,0.036,0.03,0.047,0.046
			l0.08,6.905c0.004-0.008,0.004-0.017,0.008-0.025c0.063,0.194,0.158,0.381,0.289,0.567c1.332,1.887,6.184,3.286,11.964,3.286
			c5.521,0,10.195-1.276,11.769-3.036c0.233-0.262,0.4-0.535,0.492-0.817c0.003,0.013,0.003,0.028,0.008,0.041l0.118-9.158
			c0.004-0.008,0.017-0.017,0.02-0.024c0.005,0.007,0.005,2.044,0.013,2.05l0.028-2.998c0.079-0.155,0.153-0.311,0.153-0.473
			c0-0.157-0.071-0.31-0.146-0.461L41.187,20.454z M28.653,36.739c-5.387,0-9.771-4.384-9.771-9.771c0-5.39,4.385-9.773,9.771-9.773
			s9.771,4.383,9.771,9.773C38.424,32.356,34.04,36.739,28.653,36.739z"/>
		<path fill="#206195" d="M28.653,17.571c-5.181,0-9.399,4.213-9.399,9.394c0,5.182,4.218,9.397,9.399,9.397
			c5.182,0,9.395-4.216,9.395-9.397C38.048,21.784,33.835,17.571,28.653,17.571z M28.648,25.223c0.948,0,1.709,0.766,1.709,1.709
			c0,0.941-0.761,1.707-1.709,1.707c-0.938,0-1.704-0.763-1.704-1.707C26.945,25.989,27.71,25.223,28.648,25.223z M20.253,26.928
			c0-3.027,1.598-5.679,4-7.158l3.111,5.065c-0.701,0.434-1.173,1.208-1.173,2.093H20.253z M28.653,35.328
			c-1.613,0-3.12-0.455-4.4-1.243l3.111-5.063c0.376,0.23,0.817,0.367,1.289,0.367s0.911-0.137,1.284-0.367l3.112,5.063
			C31.772,34.873,30.266,35.328,28.653,35.328z M31.115,26.928c0-0.885-0.472-1.659-1.178-2.093l3.112-5.065
			c2.402,1.48,4.003,4.131,4.003,7.158H31.115z"/>
	</g>
</g>
</svg>
