<?xml version="1.0" encoding="utf-8"?>
<!-- Generator: Adobe Illustrator 16.0.0, SVG Export Plug-In . SVG Version: 6.00 Build 0)  -->
<!DOCTYPE svg PUBLIC "-//W3C//DTD SVG 1.1//EN" "http://www.w3.org/Graphics/SVG/1.1/DTD/svg11.dtd">
<svg version="1.1" id="Layer_1" xmlns="http://www.w3.org/2000/svg" xmlns:xlink="http://www.w3.org/1999/xlink" x="0px" y="0px"
	 width="57.652px" height="49.266px" viewBox="0 0 57.652 49.266" enable-background="new 0 0 57.652 49.266" xml:space="preserve">
<g>
	<g>
		<path fill="#206195" d="M17.881,23.855c0,0,2.092-8.419,14.861-14.344c0,0,12.268-7.094,13.686-8.262
			c0,0,0.252,17.273,0.584,22.364c0,0,1.754,20.196-16.021,21.863c0,0,1.518-24.664,8.979-32.192c0,0-7.4,4.618-10.738,17.47
			C29.23,30.754,26.449,25.301,17.881,23.855z"/>
		<path fill="#206195" d="M22.059,47.981c0,0-12.602,1.585-11.601-16.189c0,0,0.084-7.176-0.25-8.928c0,0,6.342,2.586,11.183,4.839
			c0,0,12.77,5.675,4.924,17.94c0,0-7.044-12.914-11.35-16.438C14.966,29.205,23.729,43.894,22.059,47.981z"/>
	</g>
</g>
</svg>
