<?xml version="1.0" encoding="utf-8"?>
<!-- Generator: Adobe Illustrator 16.0.0, SVG Export Plug-In . SVG Version: 6.00 Build 0)  -->
<!DOCTYPE svg PUBLIC "-//W3C//DTD SVG 1.1//EN" "http://www.w3.org/Graphics/SVG/1.1/DTD/svg11.dtd">
<svg version="1.1" id="Layer_1" xmlns="http://www.w3.org/2000/svg" xmlns:xlink="http://www.w3.org/1999/xlink" x="0px" y="0px"
	 width="57.652px" height="49.266px" viewBox="0 0 57.652 49.266" enable-background="new 0 0 57.652 49.266" xml:space="preserve">
<g>
	<path fill="#206195" d="M36.735,42.914c0,0-0.846-2.031-1.017-3.047c-0.17-1.018-0.848-3.389-0.848-3.389s-1.186-0.168-2.539,0.51
		c-1.354,0.676-3.556,1.861-3.556,2.879c0,1.016-0.168,3.045,1.863,3.383c2.032,0.34,3.725,1.355,4.402,1.188
		C35.719,44.268,36.735,42.914,36.735,42.914z"/>
	<path fill="#206195" d="M40.969,36.311v7.449h4.909c0,0,1.016-2.033,2.879-2.201c0,0,1.186-5.248,0-5.248
		S40.969,36.311,40.969,36.311z"/>
	<path fill="#206195" d="M38.596,34.28c0.531,0.072,2.201-1.525,2.709-2.033s1.187-0.51,0.508-1.695
		c-0.677-1.184-2.54-2.708-3.048-2.368c-0.508,0.337-1.522,0.845-1.522,2.2S36.226,33.938,38.596,34.28z"/>
	<path fill="#206195" d="M41.11,17.699l-8.296-5.205l-0.006,0.008C28.413,9.748,21.584,6.211,14.722,6
		c0,0,10.244,3.979,11.513,5.502c0,0,2.046,1.565,1.861,4.457L12.617,41.526c-0.485,0.801,0.02,1.996,1.13,2.666
		c1.111,0.676,2.404,0.566,2.89-0.234l15.004-24.781c0.787-0.443,1.79-0.608,2.891,0.2l0.039,0.016l3.933,2.463L41.11,17.699z"/>
</g>
</svg>
