<?xml version="1.0" encoding="utf-8"?>
<!-- Generator: Adobe Illustrator 16.0.0, SVG Export Plug-In . SVG Version: 6.00 Build 0)  -->
<!DOCTYPE svg PUBLIC "-//W3C//DTD SVG 1.1//EN" "http://www.w3.org/Graphics/SVG/1.1/DTD/svg11.dtd">
<svg version="1.1" id="Layer_1" xmlns="http://www.w3.org/2000/svg" xmlns:xlink="http://www.w3.org/1999/xlink" x="0px" y="0px"
	 width="57.652px" height="49.266px" viewBox="0 0 57.652 49.266" enable-background="new 0 0 57.652 49.266" xml:space="preserve">
<g>
	<polygon fill="#206195" points="25.259,9.875 25.259,41.834 35.959,41.834 28.398,10.159 	"/>
	<rect x="8.566" y="13.299" fill="#206195" width="14.696" height="1.854"/>
	<rect x="8.566" y="17.747" fill="#206195" width="14.696" height="1.853"/>
	<rect x="8.566" y="22.193" fill="#206195" width="14.696" height="1.854"/>
	<rect x="8.566" y="26.639" fill="#206195" width="14.696" height="1.856"/>
	<rect x="8.566" y="31.086" fill="#206195" width="14.696" height="1.854"/>
	<rect x="8.566" y="35.534" fill="#206195" width="14.696" height="1.853"/>
	<rect x="8.566" y="39.981" fill="#206195" width="14.696" height="1.854"/>
	<path fill="#206195" d="M36.705,34.19c0.444,0.293,0.775,0.667,1.05,0.983c0.491,0.563,0.753,0.834,1.311,0.834
		c0.559,0,0.816-0.271,1.308-0.834c0.539-0.618,1.268-1.467,2.695-1.467c1.432,0,2.161,0.849,2.699,1.467
		c0.484,0.563,0.749,0.834,1.304,0.834c0.559,0,0.819-0.271,1.308-0.832c0.375-0.481,0.843-0.882,1.382-1.171
		c0.458-0.224,1.006-0.035,1.23,0.422c0.224,0.456,0.037,1.008-0.422,1.232l-0.01-0.002c-0.308,0.188-0.575,0.435-0.792,0.724
		c-0.535,0.621-1.274,1.469-2.696,1.469c-1.417,0-2.156-0.848-2.695-1.465c-0.491-0.565-0.749-0.836-1.308-0.836
		c-0.555,0-0.815,0.271-1.307,0.836c-0.539,0.617-1.271,1.465-2.696,1.465c-1.156,0-1.849-0.559-2.36-1.101V34.19z"/>
	<path fill="#206195" d="M36.705,38.07c0.444,0.292,0.775,0.667,1.05,0.982c0.491,0.563,0.753,0.835,1.308,0.835
		c0.559,0,0.819-0.271,1.308-0.835c0.542-0.618,1.271-1.466,2.698-1.466c1.432,0,2.161,0.848,2.699,1.466
		c0.484,0.563,0.746,0.835,1.304,0.835c0.559,0,0.819-0.271,1.308-0.833c0.375-0.483,0.843-0.881,1.382-1.172
		c0.458-0.223,1.006-0.033,1.23,0.423c0.224,0.458,0.037,1.008-0.422,1.232c-0.308,0.188-0.575,0.435-0.792,0.724
		c-0.545,0.621-1.284,1.467-2.706,1.467c-1.417,0-2.156-0.846-2.695-1.467c-0.491-0.563-0.749-0.834-1.308-0.834
		c-0.555,0-0.815,0.271-1.307,0.834c-0.539,0.621-1.271,1.467-2.699,1.467c-1.157,0-1.85-0.556-2.357-1.097V38.07z"/>
</g>
</svg>
