<?xml version="1.0" encoding="utf-8"?>
<!-- Generator: Adobe Illustrator 16.0.0, SVG Export Plug-In . SVG Version: 6.00 Build 0)  -->
<!DOCTYPE svg PUBLIC "-//W3C//DTD SVG 1.1//EN" "http://www.w3.org/Graphics/SVG/1.1/DTD/svg11.dtd">
<svg version="1.1" id="Layer_1" xmlns="http://www.w3.org/2000/svg" xmlns:xlink="http://www.w3.org/1999/xlink" x="0px" y="0px"
	 width="57.652px" height="49.266px" viewBox="0 0 57.652 49.266" enable-background="new 0 0 57.652 49.266" xml:space="preserve">
<g>
	<path fill="#206195" d="M6.035,28.862h11.638c1.253-5.024,5.798-8.747,11.212-8.747c5.418,0,9.959,3.722,11.216,8.747h11.516
		V18.114c-3.12-0.33-7.548-1.021-10.127-2.405c-4.293-2.306-7.54-4.992-11.204-5.306c-0.718-0.061-2.068-0.061-2.785,0
		c-3.665,0.314-6.909,3-11.205,5.306c-2.616,1.404-7.142,2.097-10.262,2.42V28.862z"/>
	<path fill="#206195" d="M52.411,35.532l-3.228-2.842c-0.614-0.543-1.551-0.543-2.165,0h0.086l-2.139,1.884l-2.142-1.884
		c-0.605-0.543-1.552-0.543-2.161,0l-2.139,1.884l-2.133-1.884c-0.614-0.543-1.556-0.543-2.17,0l-2.139,1.884l-2.134-1.884
		c-0.613-0.543-1.555-0.543-2.166,0l-2.133,1.884l-2.142-1.884c-0.61-0.543-1.552-0.543-2.17,0l-2.134,1.884l-2.133-1.884
		c-0.614-0.543-1.556-0.543-2.167,0l-2.137,1.884l-2.129-1.884c-0.619-0.543-1.556-0.543-2.17,0L5.248,35.53
		c-0.651,0.573-0.692,1.541-0.094,2.159c0.315,0.325,0.746,0.489,1.18,0.489c0.385,0,0.774-0.131,1.081-0.401v-0.004l2.133-1.884
		l2.138,1.884c0.614,0.541,1.556,0.541,2.167,0l2.133-1.884l2.138,1.884c0.614,0.541,1.556,0.541,2.17,0l2.129-1.884l2.142,1.884
		c0.61,0.541,1.552,0.541,2.167,0l2.137-1.884l2.133,1.884c0.611,0.541,1.553,0.541,2.167,0l2.138-1.884l2.137,1.884
		c0.611,0.541,1.557,0.541,2.167,0l2.133-1.884l2.143,1.884c0.61,0.541,1.552,0.541,2.162,0l2.056-1.884l2.138,1.884
		c0.647,0.568,1.658,0.534,2.257-0.087C53.095,37.071,53.054,36.103,52.411,35.532"/>
</g>
</svg>
